<svg width="32" height="41" viewBox="0 0 32 41" fill="none" xmlns="http://www.w3.org/2000/svg">
    <path d="M8.43147 7.63509C8.89208 7.45018 11.9396 6.28441 14.8586 7.90308C16.4922 8.80889 17.2795 10.1381 17.5366 10.583C17.7883 11.0198 19.4112 13.9409 18.0722 16.4788C17.7401 17.1086 17.317 17.5454 17.001 17.8188V23.9826L18.5944 25.8129C18.9265 25.6602 19.4058 25.4136 19.9468 25.0545C24.6199 21.9378 25.2438 15.8195 25.3027 15.1388C25.359 14.4957 25.8303 7.80928 20.7502 3.34723C16.3288 -0.535963 9.54283 -1.1175 3.87891 2.00727C4.47074 2.33154 5.1804 2.80321 5.88739 3.48123C7.29601 4.83458 7.97354 6.32729 8.29757 7.2331L8.43147 7.63509Z" fill="#005C45"/>
    <path d="M7.49567 40.9989H1.83709C0.82214 40.9989 0 40.1762 0 39.1605V4.01611C4.14016 4.01611 7.49834 7.37672 7.49834 11.5199V40.9989H7.49567Z" fill="#005C45"/>
    <path d="M32.0001 27.1983C32.0001 23.4974 29.0034 20.4985 25.3051 20.4985H24.7695V31.6229L32.0001 38.3548V27.1983Z" fill="#F4D03F"/>
    <path d="M31.9985 40.8204L15.5289 24.3791V17.9527C15.5289 14.2518 12.5323 11.2529 8.83398 11.2529V41H13.0572C14.4229 41 15.5289 39.8932 15.5289 38.5264V32.4778L23.8682 40.8231H31.9985V40.8204Z" fill="#F4D03F"/>
</svg>
